<svg xmlns="http://www.w3.org/2000/svg" version="1.1" xmlns:xlink="http://www.w3.org/1999/xlink"
     xmlns:svgjs="http://svgjs.dev/svgjs" viewBox="0 0 800 800">
    <defs>
        <filter id="bbburst-blur-1" x="-100%" y="-100%" width="400%" height="400%">
            <feGaussianBlur in="SourceGraphic" stdDeviation="1"></feGaussianBlur>
        </filter>
        <filter id="bbburst-blur-2" x="-100%" y="-100%" width="400%" height="400%">
            <feGaussianBlur in="SourceGraphic" stdDeviation="2"></feGaussianBlur>
        </filter>
        <filter id="bbburst-blur-3" x="-100%" y="-100%" width="400%" height="400%">
            <feGaussianBlur in="SourceGraphic" stdDeviation="4"></feGaussianBlur>
        </filter>
        <filter id="bbburst-blur-4" x="-100%" y="-100%" width="400%" height="400%">
            <feGaussianBlur in="SourceGraphic" stdDeviation="12"></feGaussianBlur>
        </filter>
        <symbol id="bbburst-shape-1" viewBox="0 0 194 167">
            <path d="m97 0 96.129 166.5H.871L97 0Z"></path>
        </symbol>
        <symbol id="bbburst-shape-4" viewBox="0 0 149 143">
            <path
                d="M71.647 2.781c.898-2.764 4.808-2.764 5.706 0l15.445 47.534a3 3 0 0 0 2.853 2.073h49.98c2.906 0 4.115 3.719 1.764 5.427L106.96 87.193a2.999 2.999 0 0 0-1.09 3.354l15.445 47.534c.898 2.764-2.266 5.062-4.617 3.354l-40.435-29.378a3 3 0 0 0-3.526 0l-40.435 29.378c-2.351 1.708-5.515-.59-4.617-3.354L43.13 90.547a3 3 0 0 0-1.09-3.354L1.605 57.815c-2.35-1.708-1.142-5.427 1.764-5.427h49.98a3 3 0 0 0 2.853-2.073L71.647 2.781Z"></path>
        </symbol>
        <symbol id="bbburst-shape-6" viewBox="0 0 133 116">
            <path
                d="M59.7487 10.2513c-13.6683-13.66839-35.8291-13.66839-49.4974 0-13.66839 13.6683-13.66839 35.8291 0 49.4974l49.4974-49.4974ZM66.5 66.5 41.7513 91.2487 66.5 115.997l24.7487-24.7483L66.5 66.5Zm56.249-6.7513c13.668-13.6683 13.668-35.8291 0-49.4974-13.669-13.66839-35.8294-13.66839-49.4977 0l49.4977 49.4974Zm-112.4977 0 31.5 31.5 49.4974-49.4974-31.5-31.5-49.4974 49.4974Zm80.9974 31.5 31.5003-31.5-49.4977-49.4974-31.5 31.5 49.4974 49.4974Z"></path>
        </symbol>
        <symbol id="bbburst-shape-8" viewBox="0 0 87 168">
            <path
                d="m12 12 31.2546 18.0749c16.4102 9.4902 20.014 31.6325 7.4603 45.8369L36.3296 92.1884c-12.5684 14.2206-8.9394 36.3916 7.5068 45.8636L75 156"
                stroke-width="14" stroke-linecap="round" stroke-linejoin="round"></path>
        </symbol>
        <symbol id="bbburst-shape-10" viewBox="0 0 145 145">
            <circle cx="72.5" cy="72.5" r="61.5" fill="none" stroke-width="22"></circle>
        </symbol>
    </defs>
    <use xlink:href="#bbburst-shape-4" width="29.07713854632652" opacity="0.05283816136762409"
         transform="matrix(1.5702392003758303,0.7725599352820937,-0.7725599352820937,1.5702392003758303,459.7877060221899,121.84388607870915)"
         fill="#2c2891" filter="url(#bbburst-blur-4)"></use>
    <use xlink:href="#bbburst-shape-4" width="38.30857968707127" opacity="0.3698233354153845"
         transform="matrix(0.8424785044400949,-0.5387299597724086,0.5387299597724086,0.8424785044400949,-107.46151177635113,139.11015696394566)"
         fill="#ffa6d5" filter="url(#bbburst-blur-2)"></use>
    <use xlink:href="#bbburst-shape-8" width="27.4425995017961" opacity="0.3156368438603614"
         transform="matrix(0.9635776606458224,0.796252530234174,-0.796252530234174,0.9635776606458224,452.8132433951117,180.00167431341032)"
         fill="none" stroke="#ff5c58" filter="url(#bbburst-blur-3)"></use>
    <use xlink:href="#bbburst-shape-8" width="23.368034181062832" opacity="0.7061593120999444"
         transform="matrix(0.8025337246455637,-0.5966067555823673,0.5966067555823673,0.8025337246455637,180.12069471275368,215.15654698608841)"
         fill="none" stroke="#ffa6d5" filter="url(#bbburst-blur-1)"></use>
    <use xlink:href="#bbburst-shape-4" width="14.525600627180546" opacity="0.6849333757769354"
         transform="matrix(0.9891300980108608,0.1470430182260445,-0.1470430182260445,0.9891300980108608,322.57265538836924,61.990628395863155)"
         fill="#ffbd9b" filter="url(#bbburst-blur-1)"></use>
    <use xlink:href="#bbburst-shape-8" width="43.08124167911834" opacity="-0.08735884003125949"
         transform="matrix(1.6002172157679402,-0.7083818619642246,0.7083818619642246,1.6002172157679402,420.97755784571154,-577.8722780850409)"
         fill="none" stroke="#2c2891" filter="url(#bbburst-blur-4)"></use>
    <use xlink:href="#bbburst-shape-6" width="33.92340522939648" opacity="0.2635332176167626"
         transform="matrix(1.1637025666856056,0.4563949345570496,-0.4563949345570496,1.1637025666856056,835.6697599556405,-261.331671848444)"
         fill="#00a19d" filter="url(#bbburst-blur-3)"></use>
    <use xlink:href="#bbburst-shape-10" width="21.070425623359235" opacity="0.784967534465922"
         transform="matrix(0.844388105538756,-0.5357319546421239,0.5357319546421239,0.844388105538756,248.65381664672188,3.065504868271887)"
         fill="none" stroke="#ffa6d5"></use>
    <use xlink:href="#bbburst-shape-6" width="34.30869606798797" opacity="0.02122067578387099"
         transform="matrix(1.5539573811788707,0.8048083358661899,-0.8048083358661899,1.5539573811788707,1055.2127432150587,18.452349297267006)"
         fill="#00a19d" filter="url(#bbburst-blur-4)"></use>
    <use xlink:href="#bbburst-shape-10" width="24.488796522946455" opacity="0.5512783281072338"
         transform="matrix(0.9669895250445236,0.25481612675450227,-0.25481612675450227,0.9669895250445236,298.46512024198813,73.76261285524293)"
         fill="none" stroke="#2c2891" filter="url(#bbburst-blur-2)"></use>
    <use xlink:href="#bbburst-shape-4" width="26.743563054662463" opacity="0.5306124666346248"
         transform="matrix(0.8851770086182815,0.46525440719416167,-0.46525440719416167,0.8851770086182815,696.0607225640692,-132.83617672568016)"
         fill="#ffbd9b" filter="url(#bbburst-blur-2)"></use>
    <use xlink:href="#bbburst-shape-6" width="36.718851398258145" opacity="0.30103600092398564"
         transform="matrix(0.9934158217549937,0.7586995486270244,-0.7586995486270244,0.9934158217549937,883.4987005757,232.88784333758701)"
         fill="#00a19d" filter="url(#bbburst-blur-3)"></use>
    <use xlink:href="#bbburst-shape-4" width="38.04889833210812" opacity="0.12394578695704861"
         transform="matrix(1.23276195973913,0.20687665557075308,-0.20687665557075308,1.23276195973913,202.84742198772207,-396.4134453999669)"
         fill="#ffbd9b" filter="url(#bbburst-blur-3)"></use>
    <use xlink:href="#bbburst-shape-4" width="27.271060898976447" opacity="0.6127500262623864"
         transform="matrix(0.76205383317344,-0.6475136719372548,0.6475136719372548,0.76205383317344,304.522529464782,115.21370213530349)"
         fill="#00a19d" filter="url(#bbburst-blur-1)"></use>
    <use xlink:href="#bbburst-shape-6" width="11.827279612046706" opacity="0.9610360275297845"
         transform="matrix(0.9984916071736435,-0.054904557222461,0.054904557222461,0.9984916071736435,376.07489394354445,-16.156864418256305)"
         fill="#ffa6d5"></use>
    <use xlink:href="#bbburst-shape-6" width="17.358230406402917" opacity="0.673745164329347"
         transform="matrix(0.9941627505894775,-0.10789080285346145,0.10789080285346145,0.9941627505894775,204.7479688938122,-27.90036770364742)"
         fill="#00a19d" filter="url(#bbburst-blur-1)"></use>
    <use xlink:href="#bbburst-shape-4" width="25.869307535128122" opacity="0.4504796847294751"
         transform="matrix(0.9087781583882073,-0.41727959312257085,0.41727959312257085,0.9087781583882073,130.6362326380013,-188.13969452651287)"
         fill="#00a19d" filter="url(#bbburst-blur-2)"></use>
    <use xlink:href="#bbburst-shape-4" width="44.228625272628285" opacity="0.26681392749854993"
         transform="matrix(1.2499789228580558,-0.007258953823704269,0.007258953823704269,1.2499789228580558,241.09285147607187,-403.72101224433754)"
         fill="#00a19d" filter="url(#bbburst-blur-3)"></use>
    <use xlink:href="#bbburst-shape-10" width="26.3948428075511" opacity="0.46985757478852364"
         transform="matrix(0.9951308936377615,-0.09856218609441553,0.09856218609441553,0.9951308936377615,540.5253326393471,-136.8645706551526)"
         fill="none" stroke="#ffa6d5" filter="url(#bbburst-blur-2)"></use>
    <use xlink:href="#bbburst-shape-1" width="11.498333533846973" opacity="0.86785274653387"
         transform="matrix(0.992956182215766,0.11848215139627766,-0.11848215139627766,0.992956182215766,388.05985473883504,27.858142351829088)"
         fill="#00a19d"></use>
    <use xlink:href="#bbburst-shape-10" width="18.840299858809306" opacity="0.7925406345536441"
         transform="matrix(0.9144277115508989,0.40474925614235047,-0.40474925614235047,0.9144277115508989,571.3029699764709,-61.18548009679313)"
         fill="none" stroke="#ffa6d5"></use>
    <use xlink:href="#bbburst-shape-8" width="18.20622276172734" opacity="0.7032992788952421"
         transform="matrix(0.9800193785620079,0.19890203026348358,-0.19890203026348358,0.9800193785620079,382.6599638461348,-94.24708685788033)"
         fill="none" stroke="#00a19d" filter="url(#bbburst-blur-1)"></use>
    <use xlink:href="#bbburst-shape-6" width="31.835463583536715" opacity="0.33385033050046675"
         transform="matrix(0.852302350376826,0.5230494274369661,-0.5230494274369661,0.852302350376826,777.7489648637113,-187.36711653050781)"
         fill="#ffa6d5" filter="url(#bbburst-blur-2)"></use>
    <use xlink:href="#bbburst-shape-8" width="18.377882751046247" opacity="0.805794318970014"
         transform="matrix(0.8658426119892549,0.5003164711096614,-0.5003164711096614,0.8658426119892549,541.7579067040892,120.452118782041)"
         fill="none" stroke="#ffa6d5"></use>
    <use xlink:href="#bbburst-shape-4" width="27.368038198654844" opacity="0.3567609923047701"
         transform="matrix(0.9260802791628158,0.37732653835334884,-0.37732653835334884,0.9260802791628158,522.4968465394512,-264.601096933815)"
         fill="#00a19d" filter="url(#bbburst-blur-2)"></use>
    <use xlink:href="#bbburst-shape-6" width="15.516800842172666" opacity="0.7400944300849153"
         transform="matrix(0.8749544176077545,0.48420529438315224,-0.48420529438315224,0.8749544176077545,471.1704195288746,63.207514009444196)"
         fill="#ff5c58" filter="url(#bbburst-blur-1)"></use>
    <use xlink:href="#bbburst-shape-4" width="22.613051367123777" opacity="0.5814958681670754"
         transform="matrix(0.7828086197874166,-0.6222625368656866,0.6222625368656866,0.7828086197874166,322.8413317511594,40.48432699814492)"
         fill="#ffa6d5" filter="url(#bbburst-blur-1)"></use>
    <use xlink:href="#bbburst-shape-10" width="24.23503543302116" opacity="0.16349963801778222"
         transform="matrix(1.228398654590176,0.2313800886010845,-0.2313800886010845,1.228398654590176,387.00312750366527,271.1804376381938)"
         fill="none" stroke="#ffa6d5" filter="url(#bbburst-blur-3)"></use>
    <use xlink:href="#bbburst-shape-1" width="24.22675010409912" opacity="0.5061100001416408"
         transform="matrix(0.8081915694638458,0.5889196779252377,-0.5889196779252377,0.8081915694638458,789.0517633290809,220.38259659939922)"
         fill="#00a19d" filter="url(#bbburst-blur-2)"></use>
    <use xlink:href="#bbburst-shape-10" width="11.522463672231101" opacity="0.8584349808121667"
         transform="matrix(0.8146334292491938,0.579976185674635,-0.579976185674635,0.8146334292491938,563.6904571871871,67.28118277170381)"
         fill="none" stroke="#ff5c58"></use>
    <use xlink:href="#bbburst-shape-4" width="30.590993668538715" opacity="0.524560954721329"
         transform="matrix(0.8343494265471377,-0.5512359153941826,0.5512359153941826,0.8343494265471377,156.04907624851737,-138.9644803208676)"
         fill="#00a19d" filter="url(#bbburst-blur-2)"></use>
    <use xlink:href="#bbburst-shape-1" width="17.956355126538853" opacity="0.6163780711679903"
         transform="matrix(0.7366734819474182,0.6762486088676759,-0.6762486088676759,0.7366734819474182,527.9006378778738,205.64092089614036)"
         fill="#ffbd9b" filter="url(#bbburst-blur-1)"></use>
    <use xlink:href="#bbburst-shape-4" width="29.98407631409831" opacity="0.6441383050258722"
         transform="matrix(0.8566564773197498,0.5158872743789257,-0.5158872743789257,0.8566564773197498,719.5304627846438,-49.16555016322263)"
         fill="#ffbd9b" filter="url(#bbburst-blur-1)"></use>
    <use xlink:href="#bbburst-shape-8" width="37.91256107153918" opacity="0.3662254705304432"
         transform="matrix(0.9573025858714206,0.28908780514558463,-0.28908780514558463,0.9573025858714206,215.01322913168286,-27.721464867065094)"
         fill="none" stroke="#ffbd9b" filter="url(#bbburst-blur-2)"></use>
    <use xlink:href="#bbburst-shape-10" width="19.569905146567642" opacity="0.6987975123767809"
         transform="matrix(0.9663652627626023,0.25717344133048964,-0.25717344133048964,0.9663652627626023,559.325516411606,-107.49819842509481)"
         fill="none" stroke="#ffa6d5" filter="url(#bbburst-blur-1)"></use>
    <use xlink:href="#bbburst-shape-10" width="20.668325123623255" opacity="0.7415461838569359"
         transform="matrix(0.9907021524392727,-0.13604868669778483,0.13604868669778483,0.9907021524392727,311.5811632671456,118.97618116271684)"
         fill="none" stroke="#ffbd9b" filter="url(#bbburst-blur-1)"></use>
    <use xlink:href="#bbburst-shape-1" width="31.88200858272146" opacity="0.33341314214855144"
         transform="matrix(0.9955064410124319,0.09469385356379491,-0.09469385356379491,0.9955064410124319,351.6141348747631,291.9170189964245)"
         fill="#00a19d" filter="url(#bbburst-blur-2)"></use>
    <use xlink:href="#bbburst-shape-8" width="34.05453759547079" opacity="0.46841008077071555"
         transform="matrix(0.9803831538567371,0.1971011710617602,-0.1971011710617602,0.9803831538567371,257.87076850376576,128.97021121232098)"
         fill="none" stroke="#2c2891" filter="url(#bbburst-blur-2)"></use>
    <use xlink:href="#bbburst-shape-10" width="13.366318262279696" opacity="0.8585584146396538"
         transform="matrix(0.9838666429921684,-0.17890340636030683,0.17890340636030683,0.9838666429921684,296.9026123923604,-50.90118826986367)"
         fill="none" stroke="#ffa6d5"></use>
    <use xlink:href="#bbburst-shape-4" width="31.85942646395553" opacity="0.28690508135489723"
         transform="matrix(1.248081644848961,0.06922577403765592,-0.06922577403765592,1.248081644848961,493.04548757329457,-409.6639569877015)"
         fill="#2c2891" filter="url(#bbburst-blur-3)"></use>
    <use xlink:href="#bbburst-shape-1" width="26.64686375667948" opacity="0.457494056652028"
         transform="matrix(0.8225818591443791,0.5686467137041916,-0.5686467137041916,0.8225818591443791,859.8634122740316,82.46146782996146)"
         fill="#ffa6d5" filter="url(#bbburst-blur-2)"></use>
    <use xlink:href="#bbburst-shape-6" width="16.506367200212814" opacity="0.9195488914404856"
         transform="matrix(0.8910401975476671,0.45392440599092543,-0.45392440599092543,0.8910401975476671,609.5643182417575,47.65667793794756)"
         fill="#ffa6d5"></use>
    <use xlink:href="#bbburst-shape-4" width="24.27134502046541" opacity="0.6151330619614195"
         transform="matrix(0.9525035133938093,0.30452759640539867,-0.30452759640539867,0.9525035133938093,361.19629705130683,-72.87634832008962)"
         fill="#2c2891" filter="url(#bbburst-blur-1)"></use>
    <use xlink:href="#bbburst-shape-6" width="22.599454046363533" opacity="0.6823584226309266"
         transform="matrix(0.7905974072797478,-0.6123362961662002,0.6123362961662002,0.7905974072797478,138.55667456687735,-52.05735214833953)"
         fill="#00a19d" filter="url(#bbburst-blur-1)"></use>
    <use xlink:href="#bbburst-shape-10" width="23.52333424330554" opacity="0.5293120116073649"
         transform="matrix(0.9855313347725576,0.16949332783747292,-0.16949332783747292,0.9855313347725576,508.7616390928564,208.9797003550957)"
         fill="none" stroke="#00a19d" filter="url(#bbburst-blur-2)"></use>
    <use xlink:href="#bbburst-shape-6" width="18.228493562354867" opacity="0.8794262348556098"
         transform="matrix(0.7359223905219098,-0.6770659016141027,0.6770659016141027,0.7359223905219098,165.1727702486989,78.333987213858)"
         fill="#2c2891"></use>
    <use xlink:href="#bbburst-shape-4" width="16.605263436113315" opacity="0.8301938745785926"
         transform="matrix(0.7301936197049338,-0.6832402781907742,0.6832402781907742,0.7301936197049338,196.94111519710157,109.2676709986739)"
         fill="#00a19d"></use>
    <use xlink:href="#bbburst-shape-4" width="32.624867107129425" opacity="-0.08727984335695416"
         transform="matrix(1.6183674421056042,-0.6658729776260361,0.6658729776260361,1.6183674421056042,447.37377330232823,115.30293910088028)"
         fill="#2c2891" filter="url(#bbburst-blur-4)"></use>
    <use xlink:href="#bbburst-shape-10" width="20.812270820341674" opacity="0.8199292582855897"
         transform="matrix(0.9939365683766817,-0.10995498189525632,0.10995498189525632,0.9939365683766817,413.7822406472206,47.473517148753274)"
         fill="none" stroke="#ffa6d5"></use>
    <use xlink:href="#bbburst-shape-10" width="15.227987188110529" opacity="0.8204724714705207"
         transform="matrix(0.9574738531884818,0.2885200520941339,-0.2885200520941339,0.9574738531884818,533.1400822067046,91.62830236545733)"
         fill="none" stroke="#ff5c58"></use>
    <use xlink:href="#bbburst-shape-4" width="43.64409806961032" opacity="-0.08335720444697614"
         transform="matrix(1.7405144734589644,0.18195979687794656,-0.18195979687794656,1.7405144734589644,91.37343950682579,-646.1254204164015)"
         fill="#2c2891" filter="url(#bbburst-blur-4)"></use>
    <use xlink:href="#bbburst-shape-1" width="26.15275269772322" opacity="0.19098662236984043"
         transform="matrix(0.9615137313723718,0.7987436036566293,-0.7987436036566293,0.9615137313723718,991.1145930358599,232.48467018604714)"
         fill="#ffa6d5" filter="url(#bbburst-blur-3)"></use>
    <use xlink:href="#bbburst-shape-8" width="26.440934848277905" opacity="0.4641658928732667"
         transform="matrix(0.7546622084905202,-0.656113519961455,0.656113519961455,0.7546622084905202,250.47914976534196,314.2619913534033)"
         fill="none" stroke="#ff5c58" filter="url(#bbburst-blur-2)"></use>
    <use xlink:href="#bbburst-shape-8" width="13.721645056608105" opacity="0.8442044918153788"
         transform="matrix(0.7127438347267678,-0.7014244264772805,0.7014244264772805,0.7127438347267678,103.20968898521159,188.90112220303217)"
         fill="none" stroke="#ffa6d5"></use>
    <use xlink:href="#bbburst-shape-1" width="19.746025511790634" opacity="0.5259690678747431"
         transform="matrix(0.7079781101284364,0.7062343772282453,-0.7062343772282453,0.7079781101284364,540.1017323476199,274.6993632178737)"
         fill="#ffbd9b" filter="url(#bbburst-blur-2)"></use>
    <use xlink:href="#bbburst-shape-6" width="20.068107397330472" opacity="0.6251495929093445"
         transform="matrix(0.9781582277587475,-0.20786168831188237,0.20786168831188237,0.9781582277587475,240.0424588573061,165.62932072789482)"
         fill="#ffa6d5" filter="url(#bbburst-blur-1)"></use>
    <use xlink:href="#bbburst-shape-6" width="31.123840785258714" opacity="0.5312912028472784"
         transform="matrix(0.9724472797577369,0.23312290340457287,-0.23312290340457287,0.9724472797577369,274.94189331954783,-49.23775188400316)"
         fill="#00a19d" filter="url(#bbburst-blur-2)"></use>
    <use xlink:href="#bbburst-shape-10" width="14.506359321838733" opacity="0.9663979265541229"
         transform="matrix(0.951922795677026,0.30633803399257337,-0.30633803399257337,0.951922795677026,505.5249267713784,28.256857717028083)"
         fill="none" stroke="#ffbd9b"></use>
    <use xlink:href="#bbburst-shape-4" width="33.46537940629619" opacity="0.1588424836500888"
         transform="matrix(1.2450387845392603,-0.11125837044016709,0.11125837044016709,1.2450387845392603,691.3994394442497,-222.68657630294155)"
         fill="#00a19d" filter="url(#bbburst-blur-3)"></use>
    <use xlink:href="#bbburst-shape-6" width="21.390749990570676" opacity="0.7485949753871792"
         transform="matrix(0.9998566760743005,-0.016930071164977516,0.016930071164977516,0.9998566760743005,450.2996548780767,90.82973904632024)"
         fill="#ffbd9b" filter="url(#bbburst-blur-1)"></use>
    <use xlink:href="#bbburst-shape-1" width="38.03452836498808" opacity="0.14664787614455665"
         transform="matrix(1.0662875186345553,-0.6523273163099663,0.6523273163099663,1.0662875186345553,476.89548643820467,124.67528911811326)"
         fill="#ff5c58" filter="url(#bbburst-blur-3)"></use>
    <use xlink:href="#bbburst-shape-10" width="31.28055347971397" opacity="0.6256606217411813"
         transform="matrix(0.7798920381503359,-0.6259140586611831,0.6259140586611831,0.7798920381503359,224.57935499285924,241.9939136398226)"
         fill="none" stroke="#ffbd9b" filter="url(#bbburst-blur-1)"></use>
    <use xlink:href="#bbburst-shape-8" width="31.026168104865768" opacity="0.18630982255712736"
         transform="matrix(1.2268249211694309,-0.23958424989472898,0.23958424989472898,1.2268249211694309,651.2174555917443,-79.476804152932)"
         fill="none" stroke="#ffa6d5" filter="url(#bbburst-blur-3)"></use>
    <use xlink:href="#bbburst-shape-6" width="39.26706064966629" opacity="0.3733267065970971"
         transform="matrix(0.8737140694432355,0.48643984711055593,-0.48643984711055593,0.8737140694432355,396.73612667599593,-175.55006997428256)"
         fill="#2c2891" filter="url(#bbburst-blur-2)"></use>
    <use xlink:href="#bbburst-shape-4" width="22.60302305450973" opacity="0.6094954476565746"
         transform="matrix(0.9921334137525434,0.12518502033280393,-0.12518502033280393,0.9921334137525434,369.327761231478,-159.6337493488933)"
         fill="#ffa6d5" filter="url(#bbburst-blur-1)"></use>
    <use xlink:href="#bbburst-shape-6" width="31.63931730682465" opacity="0.4156370061986846"
         transform="matrix(0.7515602832011875,0.6596644152253105,-0.6596644152253105,0.7515602832011875,419.9126959202199,-34.73768996035591)"
         fill="#2c2891" filter="url(#bbburst-blur-2)"></use>
    <use xlink:href="#bbburst-shape-8" width="27.83957937495255" opacity="0.36666516485506573"
         transform="matrix(0.8582040842119033,0.5133086302040989,-0.5133086302040989,0.8582040842119033,838.2427787798512,195.40305478955725)"
         fill="none" stroke="#2c2891" filter="url(#bbburst-blur-2)"></use>
    <use xlink:href="#bbburst-shape-6" width="46.74840839934568" opacity="0.1866941047241446"
         transform="matrix(0.8980721101851081,-0.8694633315486439,0.8694633315486439,0.8980721101851081,-319.2333162956976,166.57947614174833)"
         fill="#2c2891" filter="url(#bbburst-blur-3)"></use>
    <use xlink:href="#bbburst-shape-10" width="52.60838264535657" opacity="-0.0818626874257915"
         transform="matrix(1.7463988961239651,0.11220916012962696,-0.11220916012962696,1.7463988961239651,52.01436025704601,40.0292798860994)"
         fill="none" stroke="#00a19d" filter="url(#bbburst-blur-4)"></use>
    <use xlink:href="#bbburst-shape-10" width="31.841084495435616" opacity="0.38899265600907085"
         transform="matrix(0.8813435114640253,-0.472476046800535,0.472476046800535,0.8813435114640253,39.66947373429832,280.4914675753448)"
         fill="none" stroke="#00a19d" filter="url(#bbburst-blur-2)"></use>
    <use xlink:href="#bbburst-shape-10" width="28.558439491628953" opacity="0.32483290043180124"
         transform="matrix(1.0668581048014345,-0.6513937244244001,0.6513937244244001,1.0668581048014345,232.96812186337672,266.25008801517174)"
         fill="none" stroke="#ffbd9b" filter="url(#bbburst-blur-3)"></use>
    <use xlink:href="#bbburst-shape-8" width="22.670881163691785" opacity="0.7273962912285141"
         transform="matrix(0.7318750571491033,0.6814388459157557,-0.6814388459157557,0.7318750571491033,782.575591532024,67.05479507435467)"
         fill="none" stroke="#ff5c58" filter="url(#bbburst-blur-1)"></use>
    <use xlink:href="#bbburst-shape-10" width="41.02387233747129" opacity="0.20003490538700752"
         transform="matrix(0.9377723439707947,-0.8264883731084918,0.8264883731084918,0.9377723439707947,-309.80768279709446,39.52052961370288)"
         fill="none" stroke="#ffa6d5" filter="url(#bbburst-blur-3)"></use>
    <use xlink:href="#bbburst-shape-1" width="35.63815719390402" opacity="0.10589695152535661"
         transform="matrix(1.3389331018829642,-1.1268354576787438,1.1268354576787438,1.3389331018829642,161.17877311122356,-441.49817486135476)"
         fill="#ffbd9b" filter="url(#bbburst-blur-4)"></use>
    <use xlink:href="#bbburst-shape-6" width="30.605887060844683" opacity="0.2093249587110374"
         transform="matrix(1.1031596877704826,-0.5878254020354443,0.5878254020354443,1.1031596877704826,173.54010062679367,322.6170584804926)"
         fill="#ff5c58" filter="url(#bbburst-blur-3)"></use>
    <use xlink:href="#bbburst-shape-4" width="25.907897321886132" opacity="0.41532276048825845"
         transform="matrix(0.7190526998140041,-0.6949555488591999,0.6949555488591999,0.7190526998140041,361.43749278742143,35.587527353306996)"
         fill="#2c2891" filter="url(#bbburst-blur-2)"></use>
    <use xlink:href="#bbburst-shape-10" width="12.736794001708605" opacity="0.8993761143414105"
         transform="matrix(0.9833877591457253,0.18151725857986342,-0.18151725857986342,0.9833877591457253,441.6442298341152,43.43958565946406)"
         fill="none" stroke="#2c2891"></use>
    <use xlink:href="#bbburst-shape-6" width="16.498910749427598" opacity="0.7467957186100721"
         transform="matrix(0.7534728168386897,-0.6574790599594563,0.6574790599594563,0.7534728168386897,29.629570259140962,51.606121895047636)"
         fill="#2c2891" filter="url(#bbburst-blur-1)"></use>
    <use xlink:href="#bbburst-shape-1" width="25.091099462342157" opacity="0.4999464483438778"
         transform="matrix(0.7314801881907228,-0.6818626945980142,0.6818626945980142,0.7314801881907228,-106.79990573823491,123.45657033838569)"
         fill="#ffa6d5" filter="url(#bbburst-blur-2)"></use>
    <use xlink:href="#bbburst-shape-1" width="15.691747739442384" opacity="0.7600935898077388"
         transform="matrix(0.8670390203596039,0.4982402404200792,-0.4982402404200792,0.8670390203596039,554.1203122843098,-51.61894554104913)"
         fill="#ffbd9b" filter="url(#bbburst-blur-1)"></use>
    <use xlink:href="#bbburst-shape-6" width="33.035589096643186" opacity="0.45258926823298096"
         transform="matrix(0.9013835263972486,-0.4330216372649993,0.4330216372649993,0.9013835263972486,285.9521880147963,-188.34202068035543)"
         fill="#2c2891" filter="url(#bbburst-blur-2)"></use>
    <use xlink:href="#bbburst-shape-4" width="29.418412370985926" opacity="0.6073390792856639"
         transform="matrix(0.7847339315635906,0.6198327650687321,-0.6198327650687321,0.7847339315635906,682.0120568384206,-93.69172770086098)"
         fill="#2c2891" filter="url(#bbburst-blur-1)"></use>
    <use xlink:href="#bbburst-shape-8" width="17.270534424321742" opacity="0.826566613465827"
         transform="matrix(0.9724936883060248,0.23292923003552904,-0.23292923003552904,0.9724936883060248,423.7407445573816,-39.65013190719617)"
         fill="none" stroke="#00a19d"></use>
    <use xlink:href="#bbburst-shape-6" width="47.50202020394441" opacity="0.19277887144740957"
         transform="matrix(1.2492835020455273,0.04231703577595159,-0.04231703577595159,1.2492835020455273,41.49842968969061,-212.08457931216668)"
         fill="#ffbd9b" filter="url(#bbburst-blur-3)"></use>
    <use xlink:href="#bbburst-shape-6" width="21.114103669595416" opacity="0.6327737571909137"
         transform="matrix(0.7147453891054659,0.6993847501572193,-0.6993847501572193,0.7147453891054659,507.3542104578348,118.17907917716065)"
         fill="#ffbd9b" filter="url(#bbburst-blur-1)"></use>
    <use xlink:href="#bbburst-shape-1" width="25.226270528854776" opacity="0.13653168262785043"
         transform="matrix(1.2182806735207687,-0.279807434722135,0.279807434722135,1.2182806735207687,407.918517306087,-448.0245593543211)"
         fill="#2c2891" filter="url(#bbburst-blur-3)"></use>
    <use xlink:href="#bbburst-shape-1" width="33.69000849732065" opacity="0.23519214756648155"
         transform="matrix(1.2046748039046538,0.3335545185382508,-0.3335545185382508,1.2046748039046538,342.21802203094865,211.2991579757291)"
         fill="#2c2891" filter="url(#bbburst-blur-3)"></use>
    <use xlink:href="#bbburst-shape-4" width="30.143891294377987" opacity="0.49308909176272797"
         transform="matrix(0.9991182059567332,-0.041985837204930036,0.041985837204930036,0.9991182059567332,304.70857262543245,220.1236926083812)"
         fill="#ffbd9b" filter="url(#bbburst-blur-2)"></use>
    <use xlink:href="#bbburst-shape-6" width="23.669388052533826" opacity="0.6046598753245305"
         transform="matrix(0.809050509266792,-0.5877391202354532,0.5877391202354532,0.809050509266792,149.26884637451607,261.1355092457473)"
         fill="#ffbd9b" filter="url(#bbburst-blur-1)"></use>
    <use xlink:href="#bbburst-shape-4" width="37.33066680843361" opacity="0.1459342834092926"
         transform="matrix(0.9739006050636041,-0.7835927586806466,0.7835927586806466,0.9739006050636041,202.3227052131291,385.3444722177651)"
         fill="#ff5c58" filter="url(#bbburst-blur-3)"></use>
    <use xlink:href="#bbburst-shape-10" width="18.108750484341993" opacity="0.7258325907592269"
         transform="matrix(0.9937201664222145,-0.11189383738976144,0.11189383738976144,0.9937201664222145,466.0551215624392,32.96975625757466)"
         fill="none" stroke="#ffa6d5" filter="url(#bbburst-blur-1)"></use>
    <use xlink:href="#bbburst-shape-10" width="22.96716487224513" opacity="0.6654223477468779"
         transform="matrix(0.7268373469229022,0.6868096323713556,-0.6868096323713556,0.7268373469229022,789.2309579331377,188.4138529727956)"
         fill="none" stroke="#00a19d" filter="url(#bbburst-blur-1)"></use>
    <use xlink:href="#bbburst-shape-4" width="35.832776069818856" opacity="0.1523011067460991"
         transform="matrix(1.1986460247215234,0.35460923199951977,-0.35460923199951977,1.1986460247215234,246.4384136215287,179.7153663031383)"
         fill="#ffa6d5" filter="url(#bbburst-blur-3)"></use>
    <use xlink:href="#bbburst-shape-6" width="14.668479519020373" opacity="0.9070149764556145"
         transform="matrix(0.9783658184103915,0.20688239501263717,-0.20688239501263717,0.9783658184103915,493.58346774888213,44.90737063052393)"
         fill="#ff5c58"></use>
    <use xlink:href="#bbburst-shape-6" width="33.72773715029096" opacity="0.257064086424173"
         transform="matrix(1.2010969869496513,0.3462167355002779,-0.3462167355002779,1.2010969869496513,249.40060683707952,-285.02451308981074)"
         fill="#ffa6d5" filter="url(#bbburst-blur-3)"></use>
    <use xlink:href="#bbburst-shape-8" width="38.404755416185914" opacity="0.40582026988360187"
         transform="matrix(0.8818055399385347,-0.4716131780746899,0.4716131780746899,0.8818055399385347,208.47509509007043,323.34520544866473)"
         fill="none" stroke="#ffa6d5" filter="url(#bbburst-blur-2)"></use>
    <use xlink:href="#bbburst-shape-1" width="24.252900230715937" opacity="0.7055273415874779"
         transform="matrix(0.7181382784361265,-0.695900433283955,0.695900433283955,0.7181382784361265,30.853839272198684,225.2219159693292)"
         fill="#00a19d" filter="url(#bbburst-blur-1)"></use>
    <use xlink:href="#bbburst-shape-6" width="16.914730386558304" opacity="0.9189369086696861"
         transform="matrix(0.7361503758124287,0.6768180140859285,-0.6768180140859285,0.7361503758124287,632.0101348984219,83.23265402503017)"
         fill="#ffbd9b"></use>
    <use xlink:href="#bbburst-shape-10" width="34.8056233062546" opacity="0.048844933715737726"
         transform="matrix(1.5862729587366422,-0.739079224698475,0.739079224698475,1.5862729587366422,424.81989728902477,-470.7598301433841)"
         fill="none" stroke="#00a19d" filter="url(#bbburst-blur-4)"></use>
    <use xlink:href="#bbburst-shape-8" width="36.16448102748054" opacity="0.3134993127126504"
         transform="matrix(0.9894513663279897,-0.7638625489390578,0.7638625489390578,0.9894513663279897,382.60706266893663,-24.065316563451972)"
         fill="none" stroke="#2c2891" filter="url(#bbburst-blur-3)"></use>
    <use xlink:href="#bbburst-shape-6" width="50.248076192454036" opacity="0.07959702622245624"
         transform="matrix(1.7497333220651163,0.03054998616974439,-0.03054998616974439,1.7497333220651163,602.4867048081898,40.93028131586345)"
         fill="#ffa6d5" filter="url(#bbburst-blur-4)"></use>
    <use xlink:href="#bbburst-shape-6" width="11.680404176328995" opacity="0.7896568157604532"
         transform="matrix(0.9953921455290566,-0.09588783352991788,0.09588783352991788,0.9953921455290566,261.75526090283154,-8.042094149538116)"
         fill="#ffa6d5"></use>
    <use xlink:href="#bbburst-shape-4" width="28.084977771427983" opacity="0.3100979538701778"
         transform="matrix(1.1957562646855888,-0.36423475323638216,0.36423475323638216,1.1957562646855888,538.8242128900167,1.6826694561135014)"
         fill="#2c2891" filter="url(#bbburst-blur-3)"></use>
    <use xlink:href="#bbburst-shape-6" width="40.298175992082406" opacity="0.08058626732542884"
         transform="matrix(1.4676900932811183,0.9530927499905046,-0.9530927499905046,1.4676900932811183,395.5210095818659,4.2907472405212275)"
         fill="#ffbd9b" filter="url(#bbburst-blur-4)"></use>
    <use xlink:href="#bbburst-shape-8" width="28.423989146088594" opacity="0.5450382286922784"
         transform="matrix(0.9845447248273946,0.17513333438997222,-0.17513333438997222,0.9845447248273946,315.4116093660395,-145.07943511911265)"
         fill="none" stroke="#ffbd9b" filter="url(#bbburst-blur-2)"></use>
    <use xlink:href="#bbburst-shape-10" width="12.25595414110838" opacity="0.8837358426616148"
         transform="matrix(0.9335621427754149,0.3584155766377569,-0.3584155766377569,0.9335621427754149,547.9434786279027,-26.916578671432546)"
         fill="none" stroke="#2c2891"></use>
    <use xlink:href="#bbburst-shape-4" width="28.846543980405414" opacity="0.5367164836933956"
         transform="matrix(0.95831571716239,0.2857113687614376,-0.2857113687614376,0.95831571716239,692.6994387230308,93.23134582310428)"
         fill="#2c2891" filter="url(#bbburst-blur-2)"></use>
    <use xlink:href="#bbburst-shape-4" width="19.316898294048414" opacity="0.7823547568658861"
         transform="matrix(0.8231208994801629,0.5678661680704069,-0.5678661680704069,0.8231208994801629,534.6000796082698,114.65204563029687)"
         fill="#2c2891"></use>
    <use xlink:href="#bbburst-shape-6" width="33.951529764475694" opacity="0.06656144631834193"
         transform="matrix(1.2679886041861308,-1.2061114789496483,1.2061114789496483,1.2679886041861308,-460.5772426940107,-308.6898395776971)"
         fill="#ffbd9b" filter="url(#bbburst-blur-4)"></use>
    <use xlink:href="#bbburst-shape-8" width="32.440445253529866" opacity="0.18562085802838413"
         transform="matrix(1.1990495850083496,0.3532422577938612,-0.3532422577938612,1.1990495850083496,495.55697008087753,-450.8758113277947)"
         fill="none" stroke="#ffbd9b" filter="url(#bbburst-blur-3)"></use>
    <use xlink:href="#bbburst-shape-6" width="32.40426657904973" opacity="0.08744714252037955"
         transform="matrix(1.5853345739972182,-0.7410899327942989,0.7410899327942989,1.5853345739972182,-107.65270814834065,-588.4736580786978)"
         fill="#00a19d" filter="url(#bbburst-blur-4)"></use>
</svg>
